# xmcd
#
# Track frame offsets: 
#        150
#        12799
#        27202
#        40772
#        56431
#        69674
#        82467
#        96046
#        110492
#        124728
#        137593
#        150740
#        163324
#        173814
#        187809
#        202052
#        213425
#        227571
#
# Disc length: 3214 seconds
#
# Revision: 1
# Processed by: cddbd v1.5.2PL0 Copyright (c) Steve Scherf et al.
# Submitted via: ExactAudioCopy v0.95b2
#
DISCID=f50c8c12
DTITLE=Memphis Jug Band - The Essential Memphis Blues Band Disc 2
DYEAR=1900
DGENRE=
TTITLE0=A Black Woman Is Like A Black Snake
TTITLE1=Meningitis Blues (With Memphis Minnie)
TTITLE2=Got a Letter From My Darling
TTITLE3=Coal Oil 
TTITLE4=Memphis Boy Blues
TTITLE5=Jug Band Waltz
TTITLE6=I Can Beat You Plenty
TTITLE7=He's In The Jailhouse Now
TTITLE8=Jug Band Quartette
TTITLE9=She Done Sold It Out
TTITLE10=Jazbo Stomp
TTITLE11=Gator Wobble
TTITLE12=Lindberg Hob
TTITLE13=I Whipped My Woman With A Single Tree
TTITLE14=Move That Thing
TTITLE15=Papa's Got Your Bath Water On
TTITLE16=Everybody's Talking 'Bout Sadie Gr
TTITLE17=Beale St. Mess Around
EXTD=
EXTT0=
EXTT1=
EXTT2=
EXTT3=
EXTT4=
EXTT5=
EXTT6=
EXTT7=
EXTT8=
EXTT9=
EXTT10=
EXTT11=
EXTT12=
EXTT13=
EXTT14=
EXTT15=
EXTT16=
EXTT17=
PLAYORDER=
